<?xml version="1.0" encoding="utf-8"?><!-- Uploaded to: SVG Repo, www.svgrepo.com, Generator: SVG Repo
Mixer Tools -->
<svg fill="#FFFFFF" width="800px" height="800px" viewBox="0 0 24 24" role="img"
    xmlns="http://www.w3.org/2000/svg">
    <title>OpenAI icon</title>
    <rect width="100%" height="100%" fill="lightgreen" rx="5"/>
    <path 
        d="M 19.9855 10.0169 a 4.7878 4.7878 90 0 0 -0.4126 -3.9286 a 4.837 4.837 90 0 0 -5.2078 -2.32 A 4.8521 4.8521 90 0 0 6.1446 5.5054 a 4.7878 4.7878 90 0 0 -3.1982 2.32 a 4.837 4.837 90 0 0 0.5942 5.6773 a 4.784 4.784 90 0 0 0.4088 3.9286 a 4.8408 4.8408 90 0 0 5.2117 2.3201 A 4.7878 4.7878 90 0 0 12.7679 21.36 a 4.8446 4.8446 90 0 0 4.6174 -3.3646 a 4.7915 4.7915 90 0 0 3.1982 -2.3201 a 4.8446 4.8446 90 0 0 -0.598 -5.6583 z m -7.2176 10.0865 a 3.5804 3.5804 90 0 1 -2.3011 -0.8326 l 0.1135 -0.0643 l 3.8226 -2.2066 a 0.6358 0.6358 90 0 0 0.3142 -0.545 v -5.3895 l 1.616 0.9349 a 0.0568 0.0568 90 0 1 0.0304 0.0416 v 4.4661 a 3.6032 3.6032 90 0 1 -3.5956 3.5955 z m -7.7286 -3.3003 a 3.5766 3.5766 90 0 1 -0.4277 -2.411 l 0.1136 0.0682 l 3.8264 2.2066 a 0.617 0.617 90 0 0 0.6245 0 l 4.6742 -2.6948 v 1.8659 a 0.0643 0.0643 90 0 1 -0.0266 0.0492 L 9.952 18.1202 a 3.5994 3.5994 90 0 1 -4.9126 -1.3171 z M 4.0326 8.4765 a 3.588 3.588 90 0 1 1.8924 -1.5782 V 11.44 a 0.6131 0.6131 90 0 0 0.3103 0.5412 l 4.6515 2.6834 l -1.6161 0.9348 a 0.0606 0.0606 90 0 1 -0.0568 0 l -3.8642 -2.2292 A 3.6032 3.6032 90 0 1 4.0326 8.4576 z m 13.277 3.0846 L 12.643 8.8512 L 14.2554 7.92 a 0.0606 0.0606 90 0 1 0.0568 0 l 3.8642 2.233 a 3.5955 3.5955 90 0 1 -0.5412 6.4834 v -4.5418 a 0.632 0.632 90 0 0 -0.3256 -0.5336 z m 1.6086 -2.4185 l -0.1136 -0.0682 l -3.8188 -2.2254 a 0.6207 0.6207 90 0 0 -0.6283 0 L 9.6872 9.5438 V 7.6779 a 0.053 0.053 90 0 1 0.0227 -0.0492 l 3.8642 -2.2293 a 3.5994 3.5994 90 0 1 5.3442 3.728 z M 8.8052 12.4504 l -1.616 -0.931 a 0.0643 0.0643 90 0 1 -0.0304 -0.0454 V 7.0194 a 3.5994 3.5994 90 0 1 5.9006 -2.763 l -0.1136 0.0644 L 9.1232 6.5272 a 0.6358 0.6358 90 0 0 -0.3142 0.545 z m 0.8781 -1.8923 l 2.0816 -1.1998 l 2.0855 1.1998 v 2.3995 l -2.0779 1.1998 l -2.0854 -1.1998 Z" />
</svg>